<?xml version="1.0" standalone="no"?>
<!DOCTYPE svg PUBLIC "-//W3C//DTD SVG 20010904//EN"
 "http://www.w3.org/TR/2001/REC-SVG-20010904/DTD/svg10.dtd">
<svg version="1.0" xmlns="http://www.w3.org/2000/svg"
width="112" height="100"  viewBox="0 0 459.000000 450.000000"
 preserveAspectRatio="xMidYMid meet">

<g transform="translate(0.000000,450.000000) scale(0.100000,-0.100000)"
fill="#2568c3" stroke="none">
<path d="M2978 3929 c-145 -21 -303 -79 -443 -163 -49 -30 -105 -57 -122 -61
-45 -9 -96 10 -149 56 -54 47 -100 52 -135 17 -20 -22 -21 -30 -16 -148 9
-217 47 -347 127 -434 l43 -46 -26 -38 c-40 -57 -57 -106 -57 -164 0 -89 60
-193 133 -233 31 -17 39 -30 77 -134 72 -196 162 -359 253 -458 22 -24 38 -44
36 -44 -2 -1 -195 -31 -428 -68 l-425 -66 -17 -50 c-9 -28 -20 -65 -24 -82
l-7 -33 73 0 c46 0 78 5 88 13 9 8 150 34 331 61 173 26 327 50 341 53 23 4
36 -7 108 -94 45 -54 84 -107 86 -118 10 -42 135 -783 135 -799 0 -14 -29 -16
-295 -16 l-295 0 0 -73 0 -74 443 -6 c243 -4 736 -7 1096 -7 l654 0 -6 148
c-9 240 -52 402 -219 819 -65 163 -106 254 -117 257 -9 2 -201 33 -428 67
l-412 63 44 47 c94 100 182 263 251 464 30 88 41 108 68 124 90 56 135 139
136 249 0 101 -16 154 -59 204 l-37 41 25 61 c37 89 37 208 -1 289 -50 106
-217 256 -356 319 -128 58 -314 81 -474 57z m342 -177 c129 -42 297 -169 340
-257 26 -53 24 -124 -3 -187 l-16 -38 -83 0 c-231 1 -427 113 -515 296 -29 60
-44 81 -65 88 -37 13 -79 -2 -94 -34 -7 -14 -26 -55 -43 -92 -56 -118 -211
-229 -364 -258 -60 -11 -68 -10 -90 7 -55 40 -107 166 -107 258 0 23 3 25 28
18 15 -5 56 -7 92 -7 72 2 122 20 213 78 105 67 233 118 360 142 100 19 264
12 347 -14z m-120 -554 c121 -59 196 -78 342 -85 113 -6 118 -7 145 -35 23
-24 28 -39 31 -98 4 -66 3 -71 -26 -100 -36 -36 -52 -38 -52 -7 0 12 -9 36
-20 54 -30 49 -67 55 -333 49 -128 -2 -241 -5 -252 -5 -11 0 -117 2 -236 5
-147 4 -230 2 -259 -6 -55 -15 -90 -50 -90 -90 0 -39 -22 -40 -61 -1 -55 55
-34 128 59 206 17 14 64 35 104 46 143 40 276 120 357 216 l41 50 78 -76 c61
-61 96 -86 172 -123z m-206 -309 c7 -6 -77 -203 -95 -226 -9 -10 -50 -13 -178
-13 l-167 0 -17 53 c-20 64 -23 183 -4 191 16 7 454 3 461 -5z m561 -84 c0
-60 -5 -100 -15 -120 l-15 -30 -160 -3 c-118 -2 -165 1 -178 10 -26 20 -109
221 -94 230 7 4 113 7 237 5 l225 -2 0 -90z m-414 -208 c20 -14 51 -17 191
-17 l168 0 -21 -52 c-61 -156 -169 -311 -253 -363 -49 -30 -52 -30 -185 -30
-110 0 -142 3 -167 17 -47 26 -122 105 -170 179 -41 62 -114 211 -114 230 0 5
69 9 153 9 206 0 212 3 273 145 l26 60 38 -81 c20 -45 48 -88 61 -97z m-286
-608 c108 -38 313 -33 413 11 41 18 44 19 30 3 -117 -138 -178 -218 -186 -245
-6 -18 -23 -108 -38 -201 -16 -92 -31 -164 -35 -160 -3 5 -19 87 -34 183 -15
96 -34 186 -41 200 -6 14 -54 74 -105 134 -51 61 -84 106 -74 101 11 -4 43
-16 70 -26z m930 -134 c165 -25 308 -49 319 -53 12 -5 42 -68 92 -192 120
-299 176 -489 198 -677 l7 -53 -641 0 c-588 0 -640 1 -640 17 0 29 130 787
139 808 5 11 43 62 86 113 73 88 80 93 109 88 17 -3 166 -26 331 -51z"/>
<path d="M1812 1267 l-464 -464 -42 -179 c-24 -98 -39 -180 -35 -182 8 -3 250
58 329 83 39 13 105 75 500 470 l455 455 -140 140 -140 140 -463 -463z m126
-203 c-310 -309 -400 -394 -425 -399 -33 -7 -33 -6 -27 27 5 27 78 105 397
425 l391 393 29 -27 28 -27 -393 -392z"/>
<path d="M775 1681 c-22 -10 -54 -34 -72 -52 -65 -69 -63 -41 -63 -761 0 -447
4 -666 11 -693 15 -53 91 -129 144 -144 27 -7 242 -11 676 -11 l637 0 53 28
c34 17 65 44 84 71 l30 43 3 446 3 447 -81 -80 -80 -80 0 -341 c0 -318 -1
-342 -18 -357 -17 -15 -76 -17 -644 -17 -593 0 -626 1 -641 18 -15 17 -17 77
-17 664 0 612 1 646 18 661 17 15 72 17 583 17 l565 0 72 73 c39 40 72 76 72
80 0 4 -291 7 -647 7 -610 0 -650 -2 -688 -19z"/>
</g>
</svg>
