<?xml version="1.0" standalone="no"?>
<!DOCTYPE svg PUBLIC "-//W3C//DTD SVG 20010904//EN"
 "http://www.w3.org/TR/2001/REC-SVG-20010904/DTD/svg10.dtd">
<svg version="1.0" xmlns="http://www.w3.org/2000/svg"
width="87" height="100" viewBox="0 0 512.000000 512.000000"
 preserveAspectRatio="xMidYMid meet">

<g transform="translate(0.000000,512.000000) scale(0.100000,-0.100000)"
fill="#2568c3" stroke="none">
<path d="M1794 5110 c-193 -20 -350 -67 -539 -160 -386 -190 -694 -541 -838
-957 -72 -206 -97 -383 -97 -689 l0 -194 -151 -358 c-83 -196 -156 -373 -161
-392 -12 -46 8 -106 44 -133 15 -11 98 -39 185 -62 l158 -42 5 -501 c4 -428 7
-503 20 -516 54 -53 399 -146 638 -171 l62 -7 0 -429 c0 -297 3 -436 11 -453
16 -35 61 -52 98 -37 15 7 33 24 40 37 8 17 11 157 11 454 l0 430 54 0 c176 0
476 64 663 142 59 24 73 35 82 60 14 39 -3 78 -42 96 -26 13 -37 11 -120 -21
-408 -156 -859 -166 -1268 -28 l-84 28 -5 507 c-5 502 -5 508 -26 525 -12 9
-98 36 -193 60 -94 24 -171 46 -171 48 0 2 69 169 154 371 l154 367 5 290 c4
247 8 304 26 387 132 601 563 1041 1144 1169 146 32 390 37 542 11 201 -35
371 -100 538 -208 76 -49 102 -54 141 -23 29 23 36 73 14 101 -18 23 -139 98
-233 146 -250 125 -573 182 -861 152z"/>
<path d="M2303 3857 c-662 -661 -703 -704 -703 -737 0 -33 41 -76 703 -737
661 -662 704 -703 737 -703 33 0 76 41 737 703 662 661 703 704 703 737 0 33
-41 76 -703 737 -661 662 -704 703 -737 703 -33 0 -76 -41 -737 -703z m400
-399 l-258 -258 -285 0 -285 0 540 540 540 540 3 -282 2 -283 -257 -257z
m1215 -256 l-283 -2 -257 257 -258 258 0 285 0 285 540 -540 540 -540 -282 -3z
m-653 138 l220 -220 -223 -223 -222 -222 -222 222 -223 223 220 220 c121 121
222 220 225 220 3 0 104 -99 225 -220z m-562 -558 l257 -257 -2 -283 -3 -282
-540 540 -540 540 285 0 285 0 258 -258z m962 -282 l-540 -540 -3 282 -2 283
257 257 258 258 285 0 285 0 -540 -540z"/>
<path d="M1240 4107 c-36 -18 -52 -57 -40 -94 8 -23 36 -44 134 -101 68 -40
134 -72 148 -72 35 0 67 29 74 67 8 43 -22 72 -151 145 -120 67 -133 71 -165
55z"/>
<path d="M4745 4099 c-109 -58 -223 -130 -229 -144 -3 -9 -6 -29 -6 -45 0 -33
40 -70 74 -70 27 0 244 123 269 151 9 12 17 34 17 50 0 28 -30 69 -49 69 -5 0
-15 2 -23 5 -7 3 -31 -4 -53 -16z"/>
<path d="M1271 3593 c-54 -46 -22 -136 49 -136 46 0 84 44 76 87 -7 38 -39 66
-76 66 -15 0 -37 -8 -49 -17z"/>
<path d="M4696 3589 c-55 -43 -22 -133 49 -133 46 0 75 31 75 79 0 38 -37 75
-75 75 -12 0 -34 -9 -49 -21z"/>
<path d="M995 3189 c-53 -30 -62 -94 -19 -128 24 -19 40 -21 169 -21 129 0
145 2 169 21 32 25 35 75 7 110 -18 23 -25 24 -163 27 -93 1 -150 -2 -163 -9z"/>
<path d="M4773 3190 c-34 -14 -56 -54 -48 -90 12 -53 33 -60 196 -60 164 0
183 7 195 66 5 24 0 37 -19 60 l-25 29 -139 2 c-76 1 -148 -2 -160 -7z"/>
<path d="M1265 2755 c-49 -49 -16 -125 55 -125 44 0 80 35 80 77 0 34 -42 73
-80 73 -19 0 -40 -9 -55 -25z"/>
<path d="M4692 2757 c-48 -50 -15 -127 53 -127 45 0 75 29 75 73 0 68 -83 103
-128 54z"/>
<path d="M1419 2372 c-126 -67 -205 -119 -216 -144 -24 -49 13 -108 68 -108
36 0 269 139 280 167 14 36 11 49 -13 77 -36 38 -59 40 -119 8z"/>
<path d="M4554 2386 c-56 -25 -62 -91 -11 -129 57 -44 231 -137 255 -137 53 0
92 81 60 122 -13 17 -225 143 -256 152 -9 3 -31 -1 -48 -8z"/>
<path d="M3020 1523 c-56 -21 -70 -96 -24 -132 35 -28 69 -26 99 4 40 39 32
96 -16 120 -30 16 -35 17 -59 8z"/>
<path d="M3004 1188 c-12 -5 -27 -21 -33 -34 -16 -35 -15 -1073 0 -1108 7 -13
25 -30 40 -37 37 -15 82 2 98 37 15 35 16 1073 0 1107 -11 24 -48 48 -72 46
-7 0 -22 -5 -33 -11z"/>
</g>
</svg>
