<?xml version="1.0" standalone="no"?>
<!DOCTYPE svg PUBLIC "-//W3C//DTD SVG 20010904//EN"
 "http://www.w3.org/TR/2001/REC-SVG-20010904/DTD/svg10.dtd">
<svg version="1.0" xmlns="http://www.w3.org/2000/svg"
width="112" height="100"  viewBox="0 0 512.000000 512.000000"
 preserveAspectRatio="xMidYMid meet">

<g transform="translate(0.000000,512.000000) scale(0.100000,-0.100000)"
fill="#2568c3" stroke="none" stroke-width="20">
<path stroke-width="20" d="M2837 4992 c-15 -17 -17 -79 -17 -680 l0 -661 22 -15 c17 -12 49 -16
130 -16 l108 0 0 -193 c0 -175 2 -196 18 -210 10 -10 28 -17 40 -17 14 0 109
78 264 215 l243 215 683 0 c669 0 682 0 702 20 20 20 20 33 20 670 0 637 0
650 -20 670 -20 20 -33 20 -1098 20 -1033 0 -1080 -1 -1095 -18z m2081 -669
l-3 -568 -662 -5 -662 -5 -192 -170 c-106 -93 -197 -171 -201 -173 -4 -2 -8
66 -8 151 0 203 5 196 -150 199 l-115 3 -3 568 -2 567 1000 0 1000 0 -2 -567z"/>
<path stroke-width="20" d="M3981 4773 c-19 -15 -35 -83 -110 -448 -90 -436 -92 -454 -57 -477
20 -13 52 -8 69 10 17 18 187 814 187 872 0 18 -8 35 -22 44 -29 20 -41 20
-67 -1z"/>
<path stroke-width="20" d="M3485 4490 c-93 -77 -172 -148 -176 -157 -3 -10 -4 -26 -1 -36 2 -10
81 -81 174 -157 185 -152 211 -165 244 -115 25 39 9 62 -112 162 -59 48 -118
97 -131 108 l-23 20 111 89 c147 119 169 140 169 165 0 28 -34 61 -62 61 -14
0 -87 -53 -193 -140z"/>
<path stroke-width="20" d="M4152 4614 c-17 -12 -22 -24 -20 -47 3 -26 23 -47 132 -137 72 -59
131 -111 132 -116 2 -5 -42 -45 -97 -89 -146 -116 -169 -139 -169 -167 0 -31
29 -58 61 -58 29 0 349 260 363 295 5 12 6 29 3 38 -3 8 -56 57 -119 109 -251
209 -242 203 -286 172z"/>
<path stroke-width="20" d="M1631 4245 c-46 -9 -129 -33 -185 -55 -291 -117 -501 -355 -589 -669
-21 -73 -21 -97 -25 -711 l-3 -635 -69 -33 c-160 -75 -269 -226 -314 -434 l-6
-28 -158 0 c-173 0 -202 -8 -202 -56 0 -39 360 -1467 376 -1491 l14 -23 1329
0 c1165 0 1330 2 1341 15 7 8 96 351 199 761 151 603 185 750 176 768 -10 20
-18 21 -167 24 l-156 2 -7 43 c-30 193 -150 356 -324 439 l-89 43 -4 620 c-5
687 -2 660 -74 833 -116 282 -370 500 -667 573 -109 27 -286 33 -396 14z m409
-135 c273 -79 493 -292 578 -560 40 -123 42 -168 42 -758 l0 -575 -57 6 c-87
9 -148 34 -193 79 -62 59 -80 106 -80 211 0 86 1 90 33 130 81 101 141 231
179 384 30 125 30 323 -1 448 -32 131 -32 131 -141 139 -120 10 -213 36 -337
96 -56 28 -109 50 -118 50 -9 0 -62 -47 -118 -104 -112 -113 -153 -144 -273
-205 -142 -71 -305 -101 -430 -79 -33 6 -47 4 -64 -10 -21 -17 -21 -20 -11
-154 6 -76 20 -175 31 -220 35 -135 116 -293 193 -375 29 -32 30 -33 24 -115
-8 -115 -23 -155 -82 -214 -56 -56 -109 -77 -204 -78 l-56 0 0 594 c0 582 1
597 22 682 54 212 175 387 348 507 92 64 163 96 280 127 79 21 106 24 225 20
99 -3 155 -10 210 -26z m140 -566 c47 -14 120 -28 162 -31 86 -7 80 -1 97 -97
27 -151 3 -350 -61 -507 -58 -141 -130 -239 -235 -317 -154 -116 -338 -145
-515 -82 -253 91 -429 348 -462 676 l-7 61 108 5 c221 11 442 118 623 301 l74
75 65 -30 c36 -16 104 -41 151 -54z m31 -1233 c-36 -236 -276 -384 -508 -312
-83 25 -154 78 -206 151 -49 71 -67 134 -67 241 l0 87 68 -33 c198 -98 387
-109 564 -35 41 16 89 41 108 54 l35 24 8 -57 c4 -31 3 -85 -2 -120z m-790
-266 c178 -215 487 -253 707 -87 72 55 130 128 162 205 l23 55 49 -39 c59 -46
118 -65 248 -78 166 -17 283 -75 366 -180 43 -55 85 -145 97 -208 l7 -33
-1255 0 c-1213 0 -1255 1 -1255 18 0 33 39 134 71 184 42 65 127 141 194 173
35 16 93 31 162 40 60 9 131 22 158 30 53 15 130 60 154 89 13 15 17 10 43
-51 15 -38 46 -91 69 -118z m1969 -492 c0 -10 -73 -312 -162 -670 l-162 -653
-1258 0 c-1188 0 -1257 1 -1262 18 -6 18 -336 1315 -336 1320 0 1 715 2 1590
2 1508 0 1590 -1 1590 -17z"/>
</g>
</svg>
